g Shelf
v 0.501675 -0.486478 -0.2218941
v 0.501675 0.4864781 -0.1818918
v 0.501675 0.4864781 -0.2218938
v 0.501675 -0.486478 -0.1818921
v 0.461673 -0.486478 -0.2218941
v 0.501675 0.4864781 -0.2218938
v 0.461673 0.4864781 -0.2218938
v 0.501675 -0.486478 -0.2218941
v 0.501675 -0.4864781 0.2218938
v 0.501675 0.486478 0.1818921
v 0.501675 -0.4864781 0.1818918
v 0.501675 0.486478 0.2218941
v 0.461673 0.486478 0.2218941
v 0.501675 -0.4864781 0.2218938
v 0.461673 -0.4864781 0.2218938
v 0.501675 0.486478 0.2218941
v -0.501675 0.486478 0.2218941
v -0.461672 -0.4864781 0.2218938
v -0.501675 -0.4864781 0.2218938
v -0.461672 0.486478 0.2218941
v -0.501675 -0.4864781 0.1818918
v -0.501675 0.486478 0.2218941
v -0.501675 -0.4864781 0.2218938
v -0.501675 0.486478 0.1818921
v -0.461673 0.4864781 -0.2218938
v -0.501675 -0.486478 -0.2218941
v -0.461673 -0.486478 -0.2218941
v -0.501675 0.4864781 -0.2218938
v -0.501675 -0.486478 -0.1818921
v -0.501675 0.4864781 -0.2218938
v -0.501675 0.4864781 -0.1818918
v -0.501675 -0.486478 -0.2218941
v -0.497442 0.4749981 -0.217138
v -0.497442 0.430136 0.2171379
v -0.497442 0.4301361 -0.217138
v -0.497442 0.4749981 0.2171379
v 0.4951499 0.430136 0.217138
v -0.497442 0.4749981 0.2171379
v 0.4951499 0.4749981 0.217138
v -0.497442 0.430136 0.2171379
v 0.4951499 -0.03547483 0.217138
v 0.4951499 0.009386088 -0.217138
v 0.4951499 -0.03547484 -0.217138
v 0.4951499 0.009386155 0.217138
v 0.4951499 0.009386088 -0.217138
v -0.497442 0.009386036 0.217138
v -0.497442 0.009386088 -0.217138
v 0.4951499 0.009386155 0.217138
v -0.497442 -0.03547489 0.217138
v 0.4951499 0.009386155 0.217138
v 0.4951499 -0.03547483 0.217138
v -0.497442 0.009386036 0.217138
v -0.497442 -0.0354749 -0.217138
v 0.4951499 -0.03547483 0.217138
v 0.4951499 -0.03547484 -0.217138
v -0.497442 -0.03547489 0.217138
v -0.497442 0.4749981 -0.217138
v 0.4951499 0.4749981 0.217138
v -0.497442 0.4749981 0.2171379
v 0.4951499 0.4749981 -0.217138
v -0.497442 0.4301361 -0.217138
v 0.4951499 0.430136 0.217138
v 0.4951499 0.4301361 -0.217138
v -0.497442 0.430136 0.2171379
v 0.4951499 0.4301361 -0.217138
v 0.4951499 0.4749981 0.217138
v 0.4951499 0.4749981 -0.217138
v 0.4951499 0.430136 0.217138
v -0.497442 0.4301361 -0.217138
v 0.4951499 0.4749981 -0.217138
v -0.497442 0.4749981 -0.217138
v 0.4951499 0.4301361 -0.217138
v -0.497442 0.009386088 -0.217138
v 0.4951499 -0.03547484 -0.217138
v 0.4951499 0.009386088 -0.217138
v -0.497442 -0.0354749 -0.217138
v -0.497442 -0.03547489 0.217138
v -0.497442 0.009386088 -0.217138
v -0.497442 0.009386036 0.217138
v -0.497442 -0.0354749 -0.217138
v 0.501675 -0.486478 -0.2218941
v 0.501675 0.4864781 -0.1818918
v 0.501675 -0.486478 -0.1818921
v 0.501675 0.4864781 -0.2218938
v 0.461673 -0.486478 -0.2218941
v 0.501675 0.4864781 -0.2218938
v 0.501675 -0.486478 -0.2218941
v 0.461673 0.4864781 -0.2218938
v 0.501675 -0.4864781 0.2218938
v 0.501675 0.486478 0.1818921
v 0.501675 0.486478 0.2218941
v 0.501675 -0.4864781 0.1818918
v 0.461673 0.486478 0.2218941
v 0.501675 -0.4864781 0.2218938
v 0.501675 0.486478 0.2218941
v 0.461673 -0.4864781 0.2218938
v -0.501675 0.486478 0.2218941
v -0.461672 -0.4864781 0.2218938
v -0.461672 0.486478 0.2218941
v -0.501675 -0.4864781 0.2218938
v -0.501675 -0.4864781 0.1818918
v -0.501675 0.486478 0.2218941
v -0.501675 0.486478 0.1818921
v -0.501675 -0.4864781 0.2218938
v -0.461673 0.4864781 -0.2218938
v -0.501675 -0.486478 -0.2218941
v -0.501675 0.4864781 -0.2218938
v -0.461673 -0.486478 -0.2218941
v -0.501675 -0.486478 -0.1818921
v -0.501675 0.4864781 -0.2218938
v -0.501675 -0.486478 -0.2218941
v -0.501675 0.4864781 -0.1818918
v -0.497442 0.4749981 -0.217138
v -0.497442 0.430136 0.2171379
v -0.497442 0.4749981 0.2171379
v -0.497442 0.4301361 -0.217138
v 0.4951499 0.430136 0.217138
v -0.497442 0.4749981 0.2171379
v -0.497442 0.430136 0.2171379
v 0.4951499 0.4749981 0.217138
v 0.4951499 -0.03547483 0.217138
v 0.4951499 0.009386088 -0.217138
v 0.4951499 0.009386155 0.217138
v 0.4951499 -0.03547484 -0.217138
v 0.4951499 0.009386088 -0.217138
v -0.497442 0.009386036 0.217138
v 0.4951499 0.009386155 0.217138
v -0.497442 0.009386088 -0.217138
v -0.497442 -0.03547489 0.217138
v 0.4951499 0.009386155 0.217138
v -0.497442 0.009386036 0.217138
v 0.4951499 -0.03547483 0.217138
v -0.497442 -0.0354749 -0.217138
v 0.4951499 -0.03547483 0.217138
v -0.497442 -0.03547489 0.217138
v 0.4951499 -0.03547484 -0.217138
v -0.497442 0.4749981 -0.217138
v 0.4951499 0.4749981 0.217138
v 0.4951499 0.4749981 -0.217138
v -0.497442 0.4749981 0.2171379
v -0.497442 0.4301361 -0.217138
v 0.4951499 0.430136 0.217138
v -0.497442 0.430136 0.2171379
v 0.4951499 0.4301361 -0.217138
v 0.4951499 0.4301361 -0.217138
v 0.4951499 0.4749981 0.217138
v 0.4951499 0.430136 0.217138
v 0.4951499 0.4749981 -0.217138
v -0.497442 0.4301361 -0.217138
v 0.4951499 0.4749981 -0.217138
v 0.4951499 0.4301361 -0.217138
v -0.497442 0.4749981 -0.217138
v -0.497442 0.009386088 -0.217138
v 0.4951499 -0.03547484 -0.217138
v -0.497442 -0.0354749 -0.217138
v 0.4951499 0.009386088 -0.217138
v -0.497442 -0.03547489 0.217138
v -0.497442 0.009386088 -0.217138
v -0.497442 -0.0354749 -0.217138
v -0.497442 0.009386036 0.217138
vt 0.8996288 -0.6276693
vt 0.7999506 1.626099
vt 0.8996295 1.626099
vt 0.7999491 -0.6276693
vt 0.9993084 -0.6276693
vt 0.8996295 1.626099
vt 0.9993084 1.6261
vt 0.8996288 -0.6276693
vt 0.8996295 -0.6276693
vt 0.9993092 1.6261
vt 0.9993084 -0.6276693
vt 0.8996298 1.6261
vt 0.7999504 1.6261
vt 0.8996295 -0.6276693
vt 0.7999506 -0.6276693
vt 0.8996298 1.6261
vt 0.8996279 1.626108
vt 0.9993084 -0.6276693
vt 0.8996269 -0.6276693
vt 0.9993078 1.626108
vt 0.7999477 -0.6276693
vt 0.8996279 1.626108
vt 0.8996269 -0.6276693
vt 0.7999482 1.626108
vt 0.7999504 1.6261
vt 0.8996291 -0.6276693
vt 0.7999501 -0.6276693
vt 0.8996298 1.6261
vt 0.9993084 -0.6276693
vt 0.8996298 1.6261
vt 0.9993086 1.6261
vt 0.8996291 -0.6276693
vt 2.765656E-06 0.09765585
vt 0.8000029 -9.536743E-07
vt 2.765656E-06 -7.748604E-07
vt 0.8000029 0.09765567
vt 0.8000029 -1.341105E-07
vt 5.435944E-06 0.09765671
vt 0.8000029 0.09765629
vt 5.435944E-06 -4.023314E-07
vt 2.956391E-06 -1.043081E-07
vt 0.8000029 0.09765571
vt 0.8000029 -1.937151E-07
vt 2.956391E-06 0.0976558
vt 0 0.09765625
vt 0.8 1
vt 0.8 0.0976563
vt -1.487206E-08 0.9999999
vt 0 -6.109476E-07
vt 0.8000029 0.09765507
vt 0.8000029 -9.387732E-07
vt 0 0.09765489
vt 0 0.09765625
vt 0.8 1
vt 0.8 0.0976563
vt 1.164153E-08 1
vt -8.381903E-09 0.9999999
vt 0.8 0.09765609
vt 0 0.09765625
vt 0.8 1
vt 0 0.09765625
vt 0.8 1
vt 0.8 0.0976563
vt 1.164153E-08 1
vt 0.8000029 -8.642673E-07
vt 2.861023E-06 0.0976558
vt 0.8000029 0.09765571
vt 2.861023E-06 -7.748604E-07
vt 0.8000029 -5.364418E-07
vt 5.817413E-06 0.09765586
vt 0.8000029 0.09765622
vt 5.76973E-06 -7.450581E-07
vt 0.8000029 0.09765509
vt 0 -2.980232E-08
vt 9.536743E-08 0.09765592
vt 0.8000029 -5.364418E-07
vt 0.8000029 -2.384186E-07
vt 2.861023E-06 0.0976558
vt 0.8000029 0.09765567
vt 2.861023E-06 -5.960464E-08
vt 0.8996288 -0.6276693
vt 0.7999506 1.626099
vt 0.7999491 -0.6276693
vt 0.8996295 1.626099
vt 0.9993084 -0.6276693
vt 0.8996295 1.626099
vt 0.8996288 -0.6276693
vt 0.9993084 1.6261
vt 0.8996295 -0.6276693
vt 0.9993092 1.6261
vt 0.8996298 1.6261
vt 0.9993084 -0.6276693
vt 0.7999504 1.6261
vt 0.8996295 -0.6276693
vt 0.8996298 1.6261
vt 0.7999506 -0.6276693
vt 0.8996279 1.626108
vt 0.9993084 -0.6276693
vt 0.9993078 1.626108
vt 0.8996269 -0.6276693
vt 0.7999477 -0.6276693
vt 0.8996279 1.626108
vt 0.7999482 1.626108
vt 0.8996269 -0.6276693
vt 0.7999504 1.6261
vt 0.8996291 -0.6276693
vt 0.8996298 1.6261
vt 0.7999501 -0.6276693
vt 0.9993084 -0.6276693
vt 0.8996298 1.6261
vt 0.8996291 -0.6276693
vt 0.9993086 1.6261
vt 2.765656E-06 0.09765585
vt 0.8000029 -9.536743E-07
vt 0.8000029 0.09765567
vt 2.765656E-06 -7.748604E-07
vt 0.8000029 -1.341105E-07
vt 5.435944E-06 0.09765671
vt 5.435944E-06 -4.023314E-07
vt 0.8000029 0.09765629
vt 2.956391E-06 -1.043081E-07
vt 0.8000029 0.09765571
vt 2.956391E-06 0.0976558
vt 0.8000029 -1.937151E-07
vt 0 0.09765625
vt 0.8 1
vt -1.487206E-08 0.9999999
vt 0.8 0.0976563
vt 0 -6.109476E-07
vt 0.8000029 0.09765507
vt 0 0.09765489
vt 0.8000029 -9.387732E-07
vt 0 0.09765625
vt 0.8 1
vt 1.164153E-08 1
vt 0.8 0.0976563
vt -8.381903E-09 0.9999999
vt 0.8 0.09765609
vt 0.8 1
vt 0 0.09765625
vt 0 0.09765625
vt 0.8 1
vt 1.164153E-08 1
vt 0.8 0.0976563
vt 0.8000029 -8.642673E-07
vt 2.861023E-06 0.0976558
vt 2.861023E-06 -7.748604E-07
vt 0.8000029 0.09765571
vt 0.8000029 -5.364418E-07
vt 5.817413E-06 0.09765586
vt 5.76973E-06 -7.450581E-07
vt 0.8000029 0.09765622
vt 0.8000029 0.09765509
vt 0 -2.980232E-08
vt 0.8000029 -5.364418E-07
vt 9.536743E-08 0.09765592
vt 0.8000029 -2.384186E-07
vt 2.861023E-06 0.0976558
vt 2.861023E-06 -5.960464E-08
vt 0.8000029 0.09765567
vn 1 0 0
vn 1 0 0
vn 1 0 0
vn 1 0 0
vn 0 0 -1
vn 0 0 -1
vn 0 0 -1
vn 0 0 -1
vn 1 0 0
vn 1 0 0
vn 1 0 0
vn 1 0 0
vn 0 0 1
vn 0 0 1
vn 0 0 1
vn 0 0 1
vn 0 0 1
vn 0 0 1
vn 0 0 1
vn 0 0 1
vn -1 0 0
vn -1 0 0
vn -1 0 0
vn -1 0 0
vn 0 0 -1
vn 0 0 -1
vn 0 0 -1
vn 0 0 -1
vn -1 0 0
vn -1 0 0
vn -1 0 0
vn -1 0 0
vn -1 0 0
vn -1 0 0
vn -1 0 0
vn -1 0 0
vn 0 0 1
vn 0 0 1
vn 0 0 1
vn 0 0 1
vn 1 0 0
vn 1 0 0
vn 1 0 0
vn 1 0 0
vn 0 1 0
vn 0 1 0
vn 0 1 0
vn 0 1 0
vn 0 0 1
vn 0 0 1
vn 0 0 1
vn 0 0 1
vn 0 -1 0
vn 0 -1 0
vn 0 -1 0
vn 0 -1 0
vn 0 1 0
vn 0 1 0
vn 0 1 0
vn 0 1 0
vn 0 -1 0
vn 0 -1 0
vn 0 -1 0
vn 0 -1 0
vn 1 0 0
vn 1 0 0
vn 1 0 0
vn 1 0 0
vn 0 0 -1
vn 0 0 -1
vn 0 0 -1
vn 0 0 -1
vn 0 0 -1
vn 0 0 -1
vn 0 0 -1
vn 0 0 -1
vn -1 0 0
vn -1 0 0
vn -1 0 0
vn -1 0 0
vn -1 0 0
vn -1 0 0
vn -1 0 0
vn -1 0 0
vn 0 0 1
vn 0 0 1
vn 0 0 1
vn 0 0 1
vn -1 0 0
vn -1 0 0
vn -1 0 0
vn -1 0 0
vn 0 0 -1
vn 0 0 -1
vn 0 0 -1
vn 0 0 -1
vn 0 0 -1
vn 0 0 -1
vn 0 0 -1
vn 0 0 -1
vn 1 0 0
vn 1 0 0
vn 1 0 0
vn 1 0 0
vn 0 0 1
vn 0 0 1
vn 0 0 1
vn 0 0 1
vn 1 0 0
vn 1 0 0
vn 1 0 0
vn 1 0 0
vn 1 0 0
vn 1 0 0
vn 1 0 0
vn 1 0 0
vn 0 0 -1
vn 0 0 -1
vn 0 0 -1
vn 0 0 -1
vn -1 0 0
vn -1 0 0
vn -1 0 0
vn -1 0 0
vn 0 -1 0
vn 0 -1 0
vn 0 -1 0
vn 0 -1 0
vn 0 0 -1
vn 0 0 -1
vn 0 0 -1
vn 0 0 -1
vn 0 1 0
vn 0 1 0
vn 0 1 0
vn 0 1 0
vn 0 -1 0
vn 0 -1 0
vn 0 -1 0
vn 0 -1 0
vn 0 1 0
vn 0 1 0
vn 0 1 0
vn 0 1 0
vn -1 0 0
vn -1 0 0
vn -1 0 0
vn -1 0 0
vn 0 0 1
vn 0 0 1
vn 0 0 1
vn 0 0 1
vn 0 0 1
vn 0 0 1
vn 0 0 1
vn 0 0 1
vn 1 0 0
vn 1 0 0
vn 1 0 0
vn 1 0 0
g Shelf_0
f 3/3/3 2/2/2 1/1/1
f 2/2/2 4/4/4 1/1/1
f 7/7/7 6/6/6 5/5/5
f 6/6/6 8/8/8 5/5/5
f 11/11/11 10/10/10 9/9/9
f 10/10/10 12/12/12 9/9/9
f 15/15/15 14/14/14 13/13/13
f 14/14/14 16/16/16 13/13/13
f 19/19/19 18/18/18 17/17/17
f 18/18/18 20/20/20 17/17/17
f 23/23/23 22/22/22 21/21/21
f 22/22/22 24/24/24 21/21/21
f 27/27/27 26/26/26 25/25/25
f 26/26/26 28/28/28 25/25/25
f 31/31/31 30/30/30 29/29/29
f 30/30/30 32/32/32 29/29/29
f 35/35/35 34/34/34 33/33/33
f 34/34/34 36/36/36 33/33/33
f 39/39/39 38/38/38 37/37/37
f 38/38/38 40/40/40 37/37/37
f 43/43/43 42/42/42 41/41/41
f 42/42/42 44/44/44 41/41/41
f 47/47/47 46/46/46 45/45/45
f 46/46/46 48/48/48 45/45/45
f 51/51/51 50/50/50 49/49/49
f 50/50/50 52/52/52 49/49/49
f 55/55/55 54/54/54 53/53/53
f 54/54/54 56/56/56 53/53/53
f 59/59/59 58/58/58 57/57/57
f 58/58/58 60/60/60 57/57/57
f 63/63/63 62/62/62 61/61/61
f 62/62/62 64/64/64 61/61/61
f 67/67/67 66/66/66 65/65/65
f 66/66/66 68/68/68 65/65/65
f 71/71/71 70/70/70 69/69/69
f 70/70/70 72/72/72 69/69/69
f 75/75/75 74/74/74 73/73/73
f 74/74/74 76/76/76 73/73/73
f 79/79/79 78/78/78 77/77/77
f 78/78/78 80/80/80 77/77/77
f 83/83/83 82/82/82 81/81/81
f 82/82/82 84/84/84 81/81/81
f 87/87/87 86/86/86 85/85/85
f 86/86/86 88/88/88 85/85/85
f 91/91/91 90/90/90 89/89/89
f 90/90/90 92/92/92 89/89/89
f 95/95/95 94/94/94 93/93/93
f 94/94/94 96/96/96 93/93/93
f 99/99/99 98/98/98 97/97/97
f 98/98/98 100/100/100 97/97/97
f 103/103/103 102/102/102 101/101/101
f 102/102/102 104/104/104 101/101/101
f 107/107/107 106/106/106 105/105/105
f 106/106/106 108/108/108 105/105/105
f 111/111/111 110/110/110 109/109/109
f 110/110/110 112/112/112 109/109/109
f 115/115/115 114/114/114 113/113/113
f 114/114/114 116/116/116 113/113/113
f 119/119/119 118/118/118 117/117/117
f 118/118/118 120/120/120 117/117/117
f 123/123/123 122/122/122 121/121/121
f 122/122/122 124/124/124 121/121/121
f 127/127/127 126/126/126 125/125/125
f 126/126/126 128/128/128 125/125/125
f 131/131/131 130/130/130 129/129/129
f 130/130/130 132/132/132 129/129/129
f 135/135/135 134/134/134 133/133/133
f 134/134/134 136/136/136 133/133/133
f 139/139/139 138/138/138 137/137/137
f 138/138/138 140/140/140 137/137/137
f 143/143/143 142/142/142 141/141/141
f 142/142/142 144/144/144 141/141/141
f 147/147/147 146/146/146 145/145/145
f 146/146/146 148/148/148 145/145/145
f 151/151/151 150/150/150 149/149/149
f 150/150/150 152/152/152 149/149/149
f 155/155/155 154/154/154 153/153/153
f 154/154/154 156/156/156 153/153/153
f 159/159/159 158/158/158 157/157/157
f 158/158/158 160/160/160 157/157/157
