g bolt2_0
v 0 0.00762 0.018671
v 0 0.00762 0.01287
v 0.0066 0.00381 0.018671
v 0.0066 0.00381 0.01287
v 0.0066 0.00381 0.018671
v 0.0066 0.00381 0.01287
v 0.0066 -0.00381 0.018671
v 0.0066 -0.00381 0.01287
v 0.0066 -0.00381 0.018671
v 0.0066 -0.00381 0.01287
v 0 -0.00762 0.018671
v 0 -0.00762 0.01287
v 0 -0.00762 0.018671
v 0 -0.00762 0.01287
v -0.0066 -0.00381 0.018671
v -0.0066 -0.00381 0.01287
v -0.0066 -0.00381 0.018671
v -0.002368 -0.004101 0.019352
v 0 -0.00762 0.018671
v -0.004136 -0.002388 0.019352
v -0.004736 0 0.019352
v -0.0066 0.00381 0.018671
v -0.004136 0.002388 0.019352
v -0.002368 0.004101 0.019352
v 0 0.00762 0.018671
v 0 0.004776 0.019352
v 0.002368 0.004101 0.019352
v 0.0066 0.00381 0.018671
v 0.004136 0.002388 0.019352
v 0.004736 0 0.019352
v 0.0066 -0.00381 0.018671
v 0.004136 -0.002388 0.019352
v 0.002368 -0.004101 0.019352
v 0 -0.004776 0.019352
v -0.0066 0.00381 0.018671
v -0.0066 0.00381 0.01287
v 0 0.00762 0.018671
v 0 0.00762 0.01287
v -0.0066 -0.00381 0.018671
v -0.0066 -0.00381 0.01287
v -0.0066 0.00381 0.018671
v -0.0066 0.00381 0.01287
v 0 0.004776 0.011938
v 0.002368 0.004101 0.011938
v 0 0.00762 0.01287
v 0.0066 0.00381 0.01287
v 0.004136 0.002388 0.011938
v 0.004736 0 0.011938
v 0.0066 -0.00381 0.01287
v 0.004136 -0.002388 0.011938
v 0.002368 -0.004101 0.011938
v 0 -0.00762 0.01287
v 0 -0.004776 0.011938
v -0.002368 -0.004101 0.011938
v -0.004136 -0.002388 0.011938
v -0.0066 -0.00381 0.01287
v -0.004736 0 0.011938
v -0.0066 0.00381 0.01287
v -0.002368 0.004101 0.011938
v -0.004136 0.002388 0.011938
v -0.002368 -0.004101 0.011938
v -0.002368 -0.004101 0.019352
v -0.004136 -0.002388 0.011938
v -0.004136 -0.002388 0.019352
v -0.004736 0 0.011938
v -0.004736 0 0.019352
v -0.004136 0.002388 0.011938
v -0.004136 0.002388 0.019352
v -0.002368 0.004101 0.011938
v -0.002368 0.004101 0.019352
v 0 0.004776 0.011938
v 0 0.004776 0.019352
v 0.002368 0.004101 0.011938
v 0.002368 0.004101 0.019352
v 0.004136 0.002388 0.011938
v 0.004136 0.002388 0.019352
v 0.004736 0 0.011938
v 0.004736 0 0.019352
v 0 -0.004776 0.019352
v 0 -0.004776 0.011938
v 0.002368 -0.004101 0.019352
v 0.002368 -0.004101 0.011938
v 0.004136 -0.002388 0.019352
v 0.004136 -0.002388 0.011938
v 0.004736 0 0.019352
v 0.004736 0 0.011938
vt 0.350304 0.309649
vt 0.409516 0.309348
vt 0.350204 0.255625
vt 0.409416 0.255325
vt 0.290993 0.471721
vt 0.350204 0.47142
vt 0.290893 0.417697
vt 0.350104 0.417396
vt 0.290893 0.417697
vt 0.350104 0.417396
vt 0.290692 0.309649
vt 0.349904 0.309348
vt 0.290692 0.309649
vt 0.349904 0.309348
vt 0.290592 0.255625
vt 0.349804 0.255325
vt 0.08896 0.241578
vt 0.153766 0.299579
vt 0.22115 0.24481
vt 0.119147 0.298732
vt 0.101129 0.329317
vt 0.020158 0.358361
vt 0.083111 0.359901
vt 0.099711 0.391331
vt 0.083547 0.478376
vt 0.116312 0.422761
vt 0.150931 0.423608
vt 0.215737 0.481609
vt 0.18555 0.424454
vt 0.203568 0.393871
vt 0.284539 0.364826
vt 0.221586 0.363286
vt 0.204985 0.331856
vt 0.188385 0.300425
vt 0.350505 0.417697
vt 0.409716 0.417396
vt 0.350304 0.309649
vt 0.409516 0.309348
vt 0.350605 0.471721
vt 0.409816 0.47142
vt 0.350505 0.417697
vt 0.409716 0.417396
vt 0.116312 0.422761
vt 0.150931 0.423608
vt 0.083547 0.478376
vt 0.215737 0.481609
vt 0.18555 0.424454
vt 0.203568 0.39387
vt 0.284539 0.364826
vt 0.221586 0.363286
vt 0.204985 0.331856
vt 0.22115 0.24481
vt 0.188385 0.300426
vt 0.153766 0.299579
vt 0.119147 0.298733
vt 0.08896 0.241578
vt 0.101129 0.329317
vt 0.020158 0.358361
vt 0.099711 0.391331
vt 0.083111 0.359901
vt 0.209838 0.697653
vt 0.719881 0.697654
vt 0.209877 0.674934
vt 0.719877 0.674934
vt 0.209838 0.652215
vt 0.719881 0.652215
vt 0.209877 0.629495
vt 0.719877 0.629495
vt 0.209838 0.606776
vt 0.719881 0.606776
vt 0.209877 0.584056
vt 0.719877 0.584056
vt 0.209838 0.561337
vt 0.719879 0.561337
vt 0.209877 0.538617
vt 0.719877 0.538617
vt 0.209838 0.515898
vt 0.719877 0.515898
vt 0.719877 0.720373
vt 0.209877 0.720373
vt 0.719879 0.743093
vt 0.209838 0.743092
vt 0.719877 0.765812
vt 0.209877 0.765812
vt 0.719881 0.788531
vt 0.20984 0.788531
vn 0.4999893 0.8660316 0
vn 0.4999893 0.8660316 0
vn 0.4999893 0.8660316 0
vn 0.4999893 0.8660316 0
vn 1 0 0
vn 1 0 0
vn 1 0 0
vn 1 0 0
vn 0.4999893 -0.8660316 0
vn 0.4999893 -0.8660316 0
vn 0.4999893 -0.8660316 0
vn 0.4999893 -0.8660316 0
vn -0.4999893 -0.8660316 0
vn -0.4999893 -0.8660316 0
vn -0.4999893 -0.8660316 0
vn -0.4999893 -0.8660316 0
vn -0.2286824 -0.1320272 0.9645067
vn -0.1504894 -0.2606632 0.9536287
vn 0 -0.2640547 0.9645077
vn -0.2018239 -0.1165225 0.9724658
vn -0.3009794 0 0.9536306
vn -0.2286824 0.1320272 0.9645067
vn -0.2018239 0.1165225 0.9724658
vn -0.1504894 0.2606632 0.9536287
vn 0 0.2640547 0.9645077
vn 0 0.2330451 0.9724659
vn 0.1504894 0.2606632 0.9536287
vn 0.2286824 0.1320272 0.9645067
vn 0.2018239 0.1165225 0.9724658
vn 0.3009794 0 0.9536306
vn 0.2286824 -0.1320272 0.9645067
vn 0.2018239 -0.1165225 0.9724658
vn 0.1504894 -0.2606632 0.9536287
vn 0 -0.2330451 0.9724659
vn -0.4999893 0.8660316 0
vn -0.4999893 0.8660316 0
vn -0.4999893 0.8660316 0
vn -0.4999893 0.8660316 0
vn -1 0 0
vn -1 0 0
vn -1 0 0
vn -1 0 0
vn 0 0.3113253 -0.9503034
vn 0.197182 0.341536 -0.9189517
vn 0 0.3512138 -0.9362952
vn 0.3041539 0.1756072 -0.9362972
vn 0.2696353 0.1556469 -0.9503005
vn 0.394365 0 -0.9189539
vn 0.3041539 -0.1756072 -0.9362972
vn 0.2696353 -0.1556469 -0.9503005
vn 0.197182 -0.341536 -0.9189517
vn -0.0001831121 -0.3399782 -0.9404333
vn 0 -0.3113253 -0.9503034
vn -0.1970962 -0.334618 -0.9215118
vn -0.2712544 -0.2114979 -0.9389834
vn -0.3048233 -0.1939785 -0.9324457
vn -0.394365 0 -0.9189539
vn -0.3041539 0.1756072 -0.9362972
vn -0.197182 0.341536 -0.9189517
vn -0.2696353 0.1556469 -0.9503005
vn 0.4999893 0.8660316 0
vn 0.4999893 0.8660316 0
vn 0.8660316 0.4999893 0
vn 0.8660316 0.4999893 0
vn 1 0 0
vn 1 0 0
vn 0.8660316 -0.4999893 0
vn 0.8660316 -0.4999893 0
vn 0.4999893 -0.8660316 0
vn 0.4999893 -0.8660316 0
vn 0 -1 0
vn 0 -1 0
vn -0.4999893 -0.8660316 0
vn -0.4999893 -0.8660316 0
vn -0.8660316 -0.4999893 0
vn -0.8660316 -0.4999893 0
vn -1 0 0
vn -1 0 0
vn 0 1 0
vn 0 1 0
vn -0.4999893 0.8660316 0
vn -0.4999893 0.8660316 0
vn -0.8660316 0.4999893 0
vn -0.8660316 0.4999893 0
vn -1 0 0
vn -1 0 0
g bolt2_0_0
f 3/3/3 2/2/2 1/1/1
f 4/4/4 2/2/2 3/3/3
f 7/7/7 6/6/6 5/5/5
f 8/8/8 6/6/6 7/7/7
f 11/11/11 10/10/10 9/9/9
f 12/12/12 10/10/10 11/11/11
f 15/15/15 14/14/14 13/13/13
f 16/16/16 14/14/14 15/15/15
f 19/19/19 18/18/18 17/17/17
f 17/17/17 18/18/18 20/20/20
f 17/17/17 20/20/20 21/21/21
f 17/17/17 21/21/21 22/22/22
f 22/22/22 21/21/21 23/23/23
f 22/22/22 23/23/23 24/24/24
f 22/22/22 24/24/24 25/25/25
f 25/25/25 24/24/24 26/26/26
f 25/25/25 26/26/26 27/27/27
f 25/25/25 27/27/27 28/28/28
f 28/28/28 27/27/27 29/29/29
f 28/28/28 29/29/29 30/30/30
f 28/28/28 30/30/30 31/31/31
f 31/31/31 30/30/30 32/32/32
f 31/31/31 33/33/33 19/19/19
f 31/31/31 32/32/32 33/33/33
f 19/19/19 33/33/33 34/34/34
f 19/19/19 34/34/34 18/18/18
f 37/37/37 36/36/36 35/35/35
f 38/38/38 36/36/36 37/37/37
f 41/41/41 40/40/40 39/39/39
f 42/42/42 40/40/40 41/41/41
f 45/45/45 44/44/44 43/43/43
f 46/46/46 44/44/44 45/45/45
f 46/46/46 47/47/47 44/44/44
f 46/46/46 48/48/48 47/47/47
f 49/49/49 48/48/48 46/46/46
f 49/49/49 50/50/50 48/48/48
f 49/49/49 51/51/51 50/50/50
f 52/52/52 51/51/51 49/49/49
f 52/52/52 53/53/53 51/51/51
f 52/52/52 54/54/54 53/53/53
f 52/52/52 55/55/55 54/54/54
f 56/56/56 55/55/55 52/52/52
f 56/56/56 57/57/57 55/55/55
f 58/58/58 57/57/57 56/56/56
f 45/45/45 59/59/59 58/58/58
f 45/45/45 43/43/43 59/59/59
f 58/58/58 59/59/59 60/60/60
f 58/58/58 60/60/60 57/57/57
f 63/63/63 62/62/62 61/61/61
f 64/64/64 62/62/62 63/63/63
f 63/63/63 65/65/65 64/64/64
f 64/64/64 65/65/65 66/66/66
f 67/67/67 66/66/66 65/65/65
f 68/68/68 66/66/66 67/67/67
f 67/67/67 69/69/69 68/68/68
f 68/68/68 69/69/69 70/70/70
f 71/71/71 70/70/70 69/69/69
f 72/72/72 70/70/70 71/71/71
f 71/71/71 73/73/73 72/72/72
f 72/72/72 73/73/73 74/74/74
f 75/75/75 74/74/74 73/73/73
f 76/76/76 74/74/74 75/75/75
f 75/75/75 77/77/77 76/76/76
f 76/76/76 77/77/77 78/78/78
f 79/79/79 61/61/61 62/62/62
f 80/80/80 61/61/61 79/79/79
f 79/79/79 81/81/81 80/80/80
f 80/80/80 81/81/81 82/82/82
f 83/83/83 82/82/82 81/81/81
f 84/84/84 82/82/82 83/83/83
f 83/83/83 85/85/85 84/84/84
f 84/84/84 85/85/85 86/86/86
