g bolt_0
v 0 0.004349 0.017823
v 0 0.004349 -0.014787
v 0.002796 0.003332 0.017823
v 0.002796 0.003332 -0.014787
v 0.004283 0.000755 0.017823
v 0.004283 0.000755 -0.014787
v 0.003766 -0.002175 0.017823
v 0.003766 -0.002175 -0.014787
v 0.003766 -0.002175 0.017823
v 0.003766 -0.002175 -0.014787
v 0.001487 -0.004087 0.017823
v 0.001487 -0.004087 -0.014787
v 0.001487 -0.004087 0.017823
v 0.001487 -0.004087 -0.014787
v -0.001487 -0.004087 0.017823
v -0.001487 -0.004087 -0.014787
v -0.003766 -0.002175 0.017823
v -0.003766 -0.002175 -0.014787
v -0.004283 0.000755 0.017823
v -0.004283 0.000755 -0.014787
v 0 0.004349 -0.014787
v 0 0.004349 0.017823
v -0.002796 0.003332 -0.014787
v -0.002796 0.003332 0.017823
v -0.004283 0.000755 -0.014787
v -0.004283 0.000755 0.017823
v 0 0.00762 0.019101
v 0 0.00762 0.012189
v 0.0066 0.00381 0.019101
v 0.0066 0.00381 0.012189
v 0.0066 0.00381 0.019101
v 0.0066 0.00381 0.012189
v 0.0066 -0.00381 0.019101
v 0.0066 -0.00381 0.012189
v 0.0066 -0.00381 0.019101
v 0.0066 -0.00381 0.012189
v 0 -0.00762 0.019101
v 0 -0.00762 0.012189
v 0 -0.00762 0.019101
v 0 -0.00762 0.012189
v -0.0066 -0.00381 0.019101
v -0.0066 -0.00381 0.012189
v 0 0.00762 0.019101
v 0.0066 0.00381 0.019101
v -0.0066 0.00381 0.019101
v -0.0066 -0.00381 0.019101
v 0.0066 -0.00381 0.019101
v 0 -0.00762 0.019101
v -0.0066 0.00381 0.019101
v -0.0066 0.00381 0.012189
v 0 0.00762 0.019101
v 0 0.00762 0.012189
v -0.0066 -0.00381 0.019101
v -0.0066 -0.00381 0.012189
v -0.0066 0.00381 0.019101
v -0.0066 0.00381 0.012189
v 0 0.00762 0.012189
v -0.0066 0.00381 0.012189
v 0.0066 0.00381 0.012189
v 0.0066 -0.00381 0.012189
v -0.0066 -0.00381 0.012189
v 0 -0.00762 0.012189
v 0 0.004349 -0.014787
v -0.002796 0.003332 -0.014787
v 0.002796 0.003332 -0.014787
v 0.004283 0.000755 -0.014787
v -0.004283 0.000755 -0.014787
v 0.003766 -0.002175 -0.014787
v -0.003766 -0.002175 -0.014787
v -0.001487 -0.004087 -0.014787
v 0.001487 -0.004087 -0.014787
vt 0.937124 0.343164
vt 0.454225 0.344011
vt 0.937228 0.36246
vt 0.454329 0.363307
vt 0.937363 0.38765
vt 0.454464 0.388497
vt 0.937466 0.406947
vt 0.454567 0.407794
vt 0.937259 0.27264
vt 0.45436 0.271793
vt 0.937124 0.29783
vt 0.454225 0.296983
vt 0.937467 0.408641
vt 0.454567 0.407794
vt 0.937363 0.427938
vt 0.454464 0.42709
vt 0.937228 0.453127
vt 0.454329 0.45228
vt 0.937125 0.472424
vt 0.454225 0.471577
vt 0.937124 0.29783
vt 0.454225 0.298677
vt 0.937259 0.32302
vt 0.45436 0.323867
vt 0.937363 0.342317
vt 0.454464 0.343164
vt 0.349178 0.310465
vt 0.40768 0.310168
vt 0.349079 0.257089
vt 0.407582 0.256792
vt 0.290577 0.470597
vt 0.349079 0.4703
vt 0.290478 0.41722
vt 0.34898 0.416923
vt 0.290478 0.41722
vt 0.34898 0.416923
vt 0.29028 0.310465
vt 0.348782 0.310168
vt 0.29028 0.310465
vt 0.348782 0.310168
vt 0.290181 0.257089
vt 0.348683 0.256792
vt 0.085614 0.477172
vt 0.216222 0.480366
vt 0.022985 0.358594
vt 0.090963 0.243209
vt 0.2842 0.364981
vt 0.22157 0.246403
vt 0.349376 0.41722
vt 0.407878 0.416923
vt 0.349178 0.310465
vt 0.40768 0.310168
vt 0.349475 0.470597
vt 0.407977 0.4703
vt 0.349376 0.41722
vt 0.407878 0.416923
vt 0.085614 0.477172
vt 0.022985 0.358594
vt 0.216222 0.480366
vt 0.2842 0.364981
vt 0.090963 0.243209
vt 0.22157 0.246403
vt 0.139294 0.278796
vt 0.089501 0.307567
vt 0.195931 0.288763
vt 0.232911 0.332804
vt 0.069851 0.361613
vt 0.232931 0.390311
vt 0.089538 0.415645
vt 0.139351 0.444381
vt 0.195981 0.434376
vn 0 1 0
vn 0 0.7703633 -0.6376052
vn 0.6427984 0.7660354 0
vn 0.4951788 0.5901248 -0.6376132
vn 0.9848125 0.1736217 0
vn 0.7586538 0.133767 -0.6376134
vn 0.8660316 -0.4999893 0
vn 0.6671506 -0.3851833 -0.6376079
vn 0.8660316 -0.4999893 0
vn 0.6671506 -0.3851833 -0.6376079
vn 0.3420028 -0.9396989 0
vn 0.2634762 -0.7238958 -0.6376168
vn 0.3420028 -0.9396989 0
vn 0.2634762 -0.7238958 -0.6376168
vn -0.3420028 -0.9396989 0
vn -0.2634762 -0.7238958 -0.6376168
vn -0.8660316 -0.4999893 0
vn -0.6671506 -0.3851833 -0.6376079
vn -0.9848125 0.1736217 0
vn -0.7586538 0.133767 -0.6376134
vn 0 0.7703633 -0.6376052
vn 0 1 0
vn -0.4951788 0.5901248 -0.6376132
vn -0.6427984 0.7660354 0
vn -0.7586538 0.133767 -0.6376134
vn -0.9848125 0.1736217 0
vn 0.4999893 0.8660316 0
vn 0.4999893 0.8660316 0
vn 0.4999893 0.8660316 0
vn 0.4999893 0.8660316 0
vn 1 0 0
vn 1 0 0
vn 1 0 0
vn 1 0 0
vn 0.4999893 -0.8660316 0
vn 0.4999893 -0.8660316 0
vn 0.4999893 -0.8660316 0
vn 0.4999893 -0.8660316 0
vn -0.4999893 -0.8660316 0
vn -0.4999893 -0.8660316 0
vn -0.4999893 -0.8660316 0
vn -0.4999893 -0.8660316 0
vn 0 0 1
vn 0 0 1
vn 0 0 1
vn 0 0 1
vn 0 0 1
vn 0 0 1
vn -0.4999893 0.8660316 0
vn -0.4999893 0.8660316 0
vn -0.4999893 0.8660316 0
vn -0.4999893 0.8660316 0
vn -1 0 0
vn -1 0 0
vn -1 0 0
vn -1 0 0
vn 0 0 -1
vn 0 0 -1
vn 0 0 -1
vn 0 0 -1
vn 0 0 -1
vn 0 0 -1
vn 0 0.7703633 -0.6376052
vn -0.4951788 0.5901248 -0.6376132
vn 0.4951788 0.5901248 -0.6376132
vn 0.7586538 0.133767 -0.6376134
vn -0.7586538 0.133767 -0.6376134
vn 0.6671506 -0.3851833 -0.6376079
vn -0.6671506 -0.3851833 -0.6376079
vn -0.2634762 -0.7238958 -0.6376168
vn 0.2634762 -0.7238958 -0.6376168
g bolt_0_0
f 3/3/3 2/2/2 1/1/1
f 4/4/4 2/2/2 3/3/3
f 5/5/5 4/4/4 3/3/3
f 6/6/6 4/4/4 5/5/5
f 7/7/7 6/6/6 5/5/5
f 8/8/8 6/6/6 7/7/7
f 11/11/11 10/10/10 9/9/9
f 12/12/12 10/10/10 11/11/11
f 15/15/15 14/14/14 13/13/13
f 16/16/16 14/14/14 15/15/15
f 17/17/17 16/16/16 15/15/15
f 18/18/18 16/16/16 17/17/17
f 19/19/19 18/18/18 17/17/17
f 20/20/20 18/18/18 19/19/19
f 23/23/23 22/22/22 21/21/21
f 24/24/24 22/22/22 23/23/23
f 23/23/23 25/25/25 24/24/24
f 24/24/24 25/25/25 26/26/26
f 29/29/29 28/28/28 27/27/27
f 30/30/30 28/28/28 29/29/29
f 33/33/33 32/32/32 31/31/31
f 34/34/34 32/32/32 33/33/33
f 37/37/37 36/36/36 35/35/35
f 38/38/38 36/36/36 37/37/37
f 41/41/41 40/40/40 39/39/39
f 42/42/42 40/40/40 41/41/41
f 45/45/45 44/44/44 43/43/43
f 46/46/46 44/44/44 45/45/45
f 47/47/47 44/44/44 46/46/46
f 47/47/47 46/46/46 48/48/48
f 51/51/51 50/50/50 49/49/49
f 52/52/52 50/50/50 51/51/51
f 55/55/55 54/54/54 53/53/53
f 56/56/56 54/54/54 55/55/55
f 59/59/59 58/58/58 57/57/57
f 60/60/60 58/58/58 59/59/59
f 61/61/61 58/58/58 60/60/60
f 61/61/61 60/60/60 62/62/62
f 65/65/65 64/64/64 63/63/63
f 66/66/66 64/64/64 65/65/65
f 67/67/67 64/64/64 66/66/66
f 67/67/67 66/66/66 68/68/68
f 67/67/67 68/68/68 69/69/69
f 69/69/69 68/68/68 70/70/70
f 70/70/70 68/68/68 71/71/71
